<svg xmlns="http://www.w3.org/2000/svg" width="680" height="660" viewBox="0 0 680 660">
<defs><linearGradient id="sky" x2="0" y2="1"><stop stop-color="#d1b9a0"/><stop offset="1" stop-color="#f0d5b2"/></linearGradient><linearGradient id="water" x2="0" y2="1"><stop stop-color="#496b71"/><stop offset="1" stop-color="#172f40"/></linearGradient><linearGradient id="wall"><stop stop-color="#c9b99d"/><stop offset="1" stop-color="#a59275"/></linearGradient><linearGradient id="shade"><stop stop-color="#0b2333"/><stop offset="1" stop-color="#31515a"/></linearGradient><filter id="grain"><feTurbulence type="fractalNoise" baseFrequency=".65" numOctaves="3" stitchTiles="stitch"/><feColorMatrix type="saturate" values="0"/><feComponentTransfer><feFuncA type="linear" slope=".05"/></feComponentTransfer><feBlend in="SourceGraphic" mode="multiply"/></filter></defs>
<g filter="url(#grain)"><rect width="680" height="660" fill="url(#sky)"/><circle cx="523" cy="155" r="81" fill="#f9e9c9" opacity=".85"/>
<path d="M0 337L94 296 173 332 274 277 381 327 473 297 680 341V493H0Z" fill="#647574" opacity=".38"/>
<path d="M0 375L153 339 290 369 434 328 680 370V488H0Z" fill="#435a5f" opacity=".35"/>
<rect x="0" y="470" width="680" height="190" fill="url(#water)"/>
<path d="M155 454V167L180 151H418V452Z" fill="url(#wall)"/><path d="M418 151L485 195V452H418Z" fill="#7e7c6a"/>
<path d="M175 152V127H400V152" fill="#203e49"/><rect x="188" y="111" width="199" height="17" fill="#b6a37f"/>
<path d="M184 169H410V442H184Z" fill="#27434c"/>
<rect x="204" y="204" width="19" height="31" rx="2" fill="#42616a" opacity=".85"/><rect x="204" y="252" width="19" height="31" rx="2" fill="#42616a" opacity=".85"/><rect x="204" y="300" width="19" height="31" rx="2" fill="#42616a" opacity=".85"/><rect x="204" y="348" width="19" height="31" rx="2" fill="#42616a" opacity=".85"/><rect x="204" y="396" width="19" height="31" rx="2" fill="#42616a" opacity=".85"/><rect x="243" y="204" width="19" height="31" rx="2" fill="#42616a" opacity=".85"/><rect x="243" y="252" width="19" height="31" rx="2" fill="#42616a" opacity=".85"/><rect x="243" y="300" width="19" height="31" rx="2" fill="#42616a" opacity=".85"/><rect x="243" y="348" width="19" height="31" rx="2" fill="#42616a" opacity=".85"/><rect x="243" y="396" width="19" height="31" rx="2" fill="#42616a" opacity=".85"/><rect x="282" y="204" width="19" height="31" rx="2" fill="#42616a" opacity=".85"/><rect x="282" y="252" width="19" height="31" rx="2" fill="#42616a" opacity=".85"/><rect x="282" y="300" width="19" height="31" rx="2" fill="#42616a" opacity=".85"/><rect x="282" y="348" width="19" height="31" rx="2" fill="#42616a" opacity=".85"/><rect x="282" y="396" width="19" height="31" rx="2" fill="#42616a" opacity=".85"/><rect x="321" y="204" width="19" height="31" rx="2" fill="#42616a" opacity=".85"/><rect x="321" y="252" width="19" height="31" rx="2" fill="#42616a" opacity=".85"/><rect x="321" y="300" width="19" height="31" rx="2" fill="#42616a" opacity=".85"/><rect x="321" y="348" width="19" height="31" rx="2" fill="#42616a" opacity=".85"/><rect x="321" y="396" width="19" height="31" rx="2" fill="#42616a" opacity=".85"/><rect x="360" y="204" width="19" height="31" rx="2" fill="#42616a" opacity=".85"/><rect x="360" y="252" width="19" height="31" rx="2" fill="#42616a" opacity=".85"/><rect x="360" y="300" width="19" height="31" rx="2" fill="#42616a" opacity=".85"/><rect x="360" y="348" width="19" height="31" rx="2" fill="#42616a" opacity=".85"/><rect x="360" y="396" width="19" height="31" rx="2" fill="#42616a" opacity=".85"/>
<rect x="179" y="191" width="240" height="6" fill="#d3c4a7"/><rect x="179" y="239" width="240" height="5" fill="#b9aa90"/><rect x="179" y="287" width="240" height="5" fill="#b9aa90"/><rect x="179" y="335" width="240" height="5" fill="#b9aa90"/><rect x="179" y="383" width="240" height="5" fill="#b9aa90"/>
<path d="M236 451V411Q296 355 356 411V451Z" fill="#d9c9a5"/><path d="M251 451V418Q296 377 341 418V451Z" fill="url(#shade)"/><path d="M278 451V414H314V451" fill="#ddba76"/><path d="M296 408V451" stroke="#31484c" stroke-width="3"/>
<path d="M108 450H543L569 473H82Z" fill="#d9ccb2"/><path d="M89 473H565V486H89Z" fill="#8d9388"/>
<path d="M80 501H601M55 523H502M173 547H640M92 576H570M310 605H664" stroke="#a5b7ac" opacity=".35" stroke-width="2"/>
<path d="M226 493L197 610H405L385 493" fill="#e0ba7433"/><path d="M270 501L256 634M314 501L321 629M358 501L385 613" stroke="#d7b980" stroke-width="6" opacity=".2"/>
<path d="M96 454Q103 330 68 286M565 458Q548 345 580 285" stroke="#354d4c" stroke-width="9" fill="none"/>
<path d="M67 291Q11 246 0 287Q38 278 67 291Q15 297 15 342Q44 305 67 291Q79 234 113 242Q87 264 67 291Q124 267 145 306Q99 285 67 291" fill="#29474a"/>
<path d="M579 289Q530 247 501 274Q548 267 579 289Q526 295 512 334Q550 306 579 289Q595 237 628 244Q599 263 579 289Q639 260 679 293Q630 283 579 289" fill="#29474a"/>
<path d="M0 621Q154 598 241 660H0M680 580Q573 612 541 660H680" fill="#142e3a"/>
</g></svg>